<?xml version="1.0"?>
<svg xmlns="http://www.w3.org/2000/svg" height="512px" viewBox="-58 0 490 490.66667" width="512px" class=""><g><path d="m341.667969 192c-17.664063 0-32 14.335938-32 32v5.332031c0 2.945313-2.390625 5.335938-5.335938 5.335938-2.941406 0-5.332031-2.390625-5.332031-5.335938v-26.664062c0-17.664063-14.335938-32-32-32s-32 14.335937-32 32v26.664062c0 2.945313-2.390625 5.335938-5.332031 5.335938-2.945313 0-5.335938-2.390625-5.335938-5.335938v-48c0-17.664062-14.335937-32-32-32-17.664062 0-32 14.335938-32 32v48c0 2.945313-2.386719 5.335938-5.332031 5.335938s-5.332031-2.390625-5.332031-5.335938v-197.332031c0-17.664062-14.335938-32-32-32-17.664063 0-32 14.335938-32 32v250.667969c0 2.941406-2.390625 5.332031-5.335938 5.332031-2.941406 0-5.332031-2.390625-5.332031-5.332031v-69.335938h-10.539062c-35.09375 0-64.128907 42.667969-64.128907 84.757813 0 112.664062 82.113281 192.578125 132.546875 192.578125h134.121094c58.902344 0 106.667969-47.765625 106.667969-106.667969v-160c0-17.664062-14.335938-32-32-32zm0 0" data-original="#000000" class="active-path" fill="#000000"/></g> </svg>
