<?xml version="1.0"?>
<svg xmlns="http://www.w3.org/2000/svg" xmlns:xlink="http://www.w3.org/1999/xlink" version="1.1" id="Capa_1" x="0px" y="0px" viewBox="0 0 336 336" style="enable-background:new 0 0 336 336;" xml:space="preserve" width="512px" height="512px" class=""><g><g><g transform="matrix(-1 0 0 1 311 0)"><g><path d="M302.435,194.824c3.464-3.464,3.096-9.312-0.888-12.16c-21.872-15.656-52.488-13.656-72.136,5.992  l-14.216,14.216c0-6.544,0-64.736,0-61.832c0-10.464-7.528-19.992-17.936-21.04c-11.968-1.2-22.064,8.168-22.064,19.896V152h-8  V21.144c0-10.464-7.528-19.992-17.936-21.04c-11.968-1.2-22.064,8.168-22.064,19.896v132h-8v-18.96  c0-10.464-7.528-19.992-17.936-21.04c-11.968-1.2-22.064,8.168-22.064,19.896V152h-8v-2.96c0-10.464-7.528-19.992-17.936-21.04  c-11.968-1.2-22.064,8.168-22.064,19.896c0,4.984,0,97.24,0,93.208c0,48.952,37.016,91.52,85.864,94.696  c28.048,1.824,53.6-8.952,71.6-27.2L302.435,194.824z" data-original="#16B032" class="active-path" data-old_color="#000000" fill="#16B032"/></g></g></g></g> </svg>
